# xmcd
#
# Track frame offsets: 
#        150
#        25240
#        58718
#        77923
#        95265
#        112744
#        175827
#        186203
#        202479
#        222047
#        236713
#        251257
#        274099
#        285504
#
# Disc length: 3926 seconds
#
# Revision: 0
# Processed by: cddbd v1.5.2PL0 Copyright (c) Steve Scherf et al.
# Submitted via: ExactAudioCopy v1.3
#
DISCID=c30f540e
DTITLE=Pera Joe - Harmonica, Blues and Friends
DYEAR=2012
DGENRE=Blues
TTITLE0=Pera Joe Blues Band - Big Fat Harmonica Boogie
TTITLE1=Dr. Agranovsky and Cherniy Hieb (Black Bread) - Nobody Knows The
TTITLE1=Way I Feel This Morning
TTITLE2=Skeleton Man and Pera Joe - Forty Days and Forty Nights
TTITLE3=Sven Zetterberg and Blues Trio - Money, Marbles and Chalk
TTITLE4=Sven Zetterberg and Blues Trio - Going Down to Main Strret
TTITLE5=Smak (featuring Pera Joe) - Tobacco Road
TTITLE6=Katarina Pejaf and Pera Joe - Some Of These Days
TTITLE7=Blues Trio - I'm Ready
TTITLE8=Blues Trio - I Got To Find My Baby
TTITLE9=Doug MacLeod and Pera Joe - Key To The Highway
TTITLE10=Pera Joe Blues Band - Born In Chicago
TTITLE11=Yurig Kaverkin and Pera Joe - Highway 61
TTITLE12=Keith Dunn and Pera Joe - Stockholm Boogie
TTITLE13=Skeleton Man and Pera Joe - Vertical Jazz (Count of the Blues)
EXTD=
EXTT0=
EXTT1=
EXTT2=
EXTT3=
EXTT4=
EXTT5=
EXTT6=
EXTT7=
EXTT8=
EXTT9=
EXTT10=
EXTT11=
EXTT12=
EXTT13=
PLAYORDER=
